<?xml version="1.0" encoding="utf-8"?>
<!-- Generator: Adobe Illustrator 19.0.0, SVG Export Plug-In . SVG Version: 6.00 Build 0)  -->
<svg version="1.1" id="Layer_1" xmlns="http://www.w3.org/2000/svg" xmlns:xlink="http://www.w3.org/1999/xlink" x="0px" y="0px"
	 viewBox="0 0 720 720" style="enable-background:new 0 0 720 720;" xml:space="preserve">
<style type="text/css">
	.st0{fill:#4DC3C8;}
	.st1{fill:#FFFFFF;}
</style>
<path id="XMLID_15_" class="st0" d="M648,605.6c-0.9,38.4-32.4,69.6-70.8,70.2c-19.1,0.3-36.5-6.8-49.6-18.6
	c-6.6-6-15.2-9.3-24.2-9.3H173.9L494.7,71.6h108.1c24.4,0,45,20,44.8,44.4c-0.1,12-5,22.9-12.9,30.8c-8,8-19,12.9-31.1,12.9H489.4
	L422,280.5h115.8c21.4,0,38.8,17.4,38.8,38.8v10.5c0,21.4-17.4,38.8-38.8,38.8H372.9l-76.8,137.7c-13.4,24,4,53.5,31.4,53.5h176
	c9,0,17.6-3.4,24.2-9.4c12.8-11.6,29.7-18.6,48.3-18.6C616.4,531.8,649,565,648,605.6z"/>
<path id="XMLID_14_" class="st1" d="M494.7,71.6L173.9,647.8h-56.7c-24.4,0-45-20-44.8-44.4c0.1-12,5-22.9,12.9-30.8
	c8-8,19-12.9,31.1-12.9h49l106.6-191.2h-88.8c-21.4,0-38.8-17.4-38.8-38.8v-10.5c0-21.4,17.3-38.8,38.8-38.8h137.9l67.4-120.9H117.2
	c-24.4,0-45-20-44.8-44.4c0.1-12,5-22.9,12.9-30.8c8-8,19-12.9,31.1-12.9H494.7z"/>
</svg>
